<?xml version="1.0" standalone="no"?>
<!DOCTYPE svg PUBLIC "-//W3C//DTD SVG 20010904//EN"
 "http://www.w3.org/TR/2001/REC-SVG-20010904/DTD/svg10.dtd">
<svg version="1.0" xmlns="http://www.w3.org/2000/svg"
 width="228.000000pt" height="228.000000pt" viewBox="0 0 228.000000 228.000000"
 preserveAspectRatio="xMidYMid meet">
<metadata>
Created by potrace 1.11, written by Peter Selinger 2001-2013
</metadata>
<g transform="translate(0.000000,228.000000) scale(0.100000,-0.100000)"
fill="#000000" stroke="none">
<path d="M70 1465 l0 -115 -35 0 -35 0 0 -215 0 -215 35 0 35 0 0 -110 0 -110
224 0 225 0 3 38 3 37 617 3 618 2 0 -40 0 -40 220 0 220 0 0 105 0 105 40 0
40 0 0 220 0 220 -35 0 -35 0 0 115 0 115 -224 0 -225 0 -3 -37 -3 -38 -615 0
-615 0 -3 38 -3 37 -225 0 -224 0 0 -115z m429 -73 c68 -50 66 -119 -4 -189
l-42 -43 34 -21 c85 -53 83 -163 -3 -220 -33 -21 -122 -26 -157 -8 -78 40 -74
161 8 215 l25 16 -44 39 c-26 23 -47 52 -51 69 -13 61 36 140 101 160 41 13
103 5 133 -18z m361 -144 l0 -148 30 0 c25 0 30 -4 30 -25 0 -21 -5 -25 -30
-25 -29 0 -29 0 -32 -67 -3 -66 -4 -68 -30 -71 -27 -3 -27 -3 -30 65 l-3 68
-107 3 c-60 1 -108 6 -108 9 0 8 216 310 243 341 16 17 23 19 29 10 4 -7 8
-79 8 -160z m352 123 c52 -55 71 -128 66 -245 -6 -153 -58 -226 -160 -226 -56
0 -97 30 -130 94 -29 56 -37 192 -14 268 44 151 152 201 238 109z m327 34 c78
-40 116 -136 109 -279 -8 -154 -58 -226 -160 -226 -92 0 -149 80 -156 221 -7
137 34 244 108 281 43 22 63 22 99 3z m370 0 c79 -40 116 -137 109 -280 -8
-150 -62 -225 -162 -225 -58 0 -104 38 -136 112 -19 45 -22 65 -18 152 3 84 8
109 30 151 48 92 111 125 177 90z"/>
<path d="M353 1358 c-48 -53 -37 -109 29 -153 l40 -27 29 28 c55 53 59 137 8
164 -32 18 -84 12 -106 -12z"/>
<path d="M351 1095 c-39 -45 -42 -101 -8 -141 31 -36 101 -38 129 -4 22 27 24
88 3 117 -13 19 -74 63 -88 63 -3 0 -19 -16 -36 -35z"/>
<path d="M717 1206 c-37 -52 -67 -100 -67 -106 0 -7 25 -10 73 -8 l72 3 3 103
c1 56 -1 102 -5 102 -5 0 -39 -43 -76 -94z"/>
<path d="M1077 1370 c-34 -27 -50 -101 -49 -226 0 -148 35 -219 103 -212 46 4
69 41 80 129 19 138 -6 268 -59 309 -31 25 -43 25 -75 0z"/>
<path d="M1448 1370 c-36 -28 -52 -98 -52 -220 1 -148 34 -220 99 -220 64 0
85 54 87 220 1 128 -15 185 -60 220 -31 25 -43 25 -74 0z"/>
<path d="M1817 1369 c-68 -52 -74 -333 -10 -409 18 -22 34 -30 57 -30 64 0 86
52 87 211 1 126 -12 182 -51 221 -34 33 -49 35 -83 7z"/>
</g>
</svg>
