<?xml version="1.0" encoding="utf-8"?>
<!-- Generator: Adobe Illustrator 18.1.1, SVG Export Plug-In . SVG Version: 6.00 Build 0)  -->
<!DOCTYPE svg PUBLIC "-//W3C//DTD SVG 1.1//EN" "http://www.w3.org/Graphics/SVG/1.1/DTD/svg11.dtd">
<svg version="1.1" id="Layer_1" xmlns="http://www.w3.org/2000/svg" xmlns:xlink="http://www.w3.org/1999/xlink" x="0px" y="0px"
	 viewBox="0 0 312 12.9" enable-background="new 0 0 312 12.9" xml:space="preserve">
<g>
	<polygon fill="#476B85" points="2,1.8 0,1.8 0,0 6.2,0 6.2,1.8 4.1,1.8 4.1,12.2 2,12.2 	"/>
	<path fill="#476B85" d="M11.2,12.2H9.1V0h3c2.4,0,3.6,1,3.6,3.6c0,2-0.8,2.8-1.5,3.1l1.8,5.5h-2.1l-1.5-5.1c-0.3,0-0.7,0.1-1.1,0.1
		V12.2z M11.2,5.5H12c1.1,0,1.6-0.4,1.6-1.9c0-1.5-0.4-1.9-1.6-1.9h-0.7V5.5z"/>
	<path fill="#476B85" d="M20.5,12.2h-2L20.7,0h2.6l2.3,12.2h-2l-0.4-2.7h-2.3L20.5,12.2z M21.2,7.7h1.7l-0.8-5.3h0L21.2,7.7z"/>
	<polygon fill="#476B85" points="28.5,12.2 28.5,0 30.5,0 33,7 33.1,7 33.1,0 35,0 35,12.2 33.1,12.2 30.5,4.6 30.4,4.6 30.4,12.2 	
		"/>
	<path fill="#476B85" d="M42.5,3c-0.1-1.1-0.6-1.4-1.1-1.4c-0.7,0-1.1,0.4-1.1,1.2c0,2.1,4.3,3.1,4.3,6.4c0,2-1.4,3.1-3.3,3.1
		c-2,0-3.1-1.6-3.2-3.4l2-0.3c0.1,1.2,0.6,1.8,1.3,1.8c0.7,0,1.2-0.4,1.2-1.1c0-2.4-4.3-3.1-4.3-6.6c0-2,1.2-3.1,3.3-3.1
		c1.7,0,2.7,1.2,2.9,3L42.5,3z"/>
	<polygon fill="#476B85" points="47.8,12.2 47.8,0 49.9,0 49.9,10.4 53.2,10.4 53.2,12.2 	"/>
	<path fill="#476B85" d="M57.4,12.2h-2L57.7,0h2.6l2.3,12.2h-2l-0.4-2.7h-2.3L57.4,12.2z M58.1,7.7h1.7L59,2.4h0L58.1,7.7z"/>
	<polygon fill="#476B85" points="66,1.8 64,1.8 64,0 70.2,0 70.2,1.8 68.1,1.8 68.1,12.2 66,12.2 	"/>
	<rect x="73.4" y="0" fill="#476B85" width="2.1" height="12.2"/>
	<polygon fill="#476B85" points="79.5,12.2 79.5,0 81.5,0 84,7 84.1,7 84.1,0 86,0 86,12.2 84.1,12.2 81.5,4.6 81.4,4.6 81.4,12.2 	
		"/>
	<path fill="#476B85" d="M92.6,6h3.4v6.2h-1l-0.4-0.9c-0.6,0.7-1.1,1.1-2.1,1.1c-1.7,0-2.8-1.2-2.8-3.1V3c0-1.7,1-3.1,3.1-3.1
		c2.1,0,3.2,1.5,3.2,3.4V4h-2c0-1.8-0.4-2.3-1.2-2.3c-0.5,0-0.9,0.3-0.9,1.3v6.3c0,0.8,0.3,1.3,1,1.3c0.8,0,1.2-0.5,1.2-1.7V7.7
		h-1.3V6z"/>
	<polygon fill="#476B85" points="106.6,1.8 104.5,1.8 104.5,0 110.7,0 110.7,1.8 108.7,1.8 108.7,12.2 106.6,12.2 	"/>
	<polygon fill="#476B85" points="113.6,12.2 113.6,0 115.8,0 115.8,5 118,5 118,0 120.1,0 120.1,12.2 118,12.2 118,6.8 115.8,6.8 
		115.8,12.2 	"/>
	<polygon fill="#476B85" points="123.8,12.2 123.8,0 129.5,0 129.5,1.8 125.9,1.8 125.9,5 128.6,5 128.6,6.8 125.9,6.8 125.9,10.4 
		129.7,10.4 129.7,12.2 	"/>
	<polygon fill="#476B85" points="142.2,0 143.9,0 145.3,7.8 145.4,7.8 146.5,0 148.5,0 146.3,12.2 144.6,12.2 143,4.2 143,4.2 
		141.6,12.2 139.8,12.2 137.5,0 139.5,0 140.8,7.8 140.8,7.8 	"/>
	<path fill="#476B85" d="M151.5,3c0-1.7,1-3.1,3.2-3.1c2.2,0,3.2,1.4,3.2,3.1v6.3c0,1.7-1,3.1-3.2,3.1c-2.2,0-3.2-1.4-3.2-3.1V3z
		 M153.6,9.2c0,0.9,0.3,1.4,1.1,1.4c0.8,0,1.1-0.4,1.1-1.4V3c0-0.9-0.3-1.4-1.1-1.4c-0.8,0-1.1,0.4-1.1,1.4V9.2z"/>
	<path fill="#476B85" d="M163.8,12.2h-2.1V0h3c2.4,0,3.6,1,3.6,3.6c0,2-0.8,2.8-1.5,3.1l1.8,5.5h-2.1l-1.5-5.1
		c-0.3,0-0.7,0.1-1.1,0.1V12.2z M163.8,5.5h0.7c1.1,0,1.6-0.4,1.6-1.9c0-1.5-0.4-1.9-1.6-1.9h-0.7V5.5z"/>
	<path fill="#476B85" d="M171.9,0h3.1c2.2,0,3.3,1.2,3.3,3.7v4.9c0,2.5-1.2,3.7-3.3,3.7h-3.1V0z M174,10.5h0.7
		c1.1,0,1.5-0.4,1.5-1.7V3.4c0-1.3-0.4-1.7-1.5-1.7H174V10.5z"/>
	<path fill="#476B85" d="M185.9,3c-0.1-1.1-0.6-1.4-1.1-1.4c-0.7,0-1.1,0.4-1.1,1.2c0,2.1,4.3,3.1,4.3,6.4c0,2-1.4,3.1-3.3,3.1
		c-2,0-3.1-1.6-3.2-3.4l2-0.3c0.1,1.2,0.6,1.8,1.3,1.8c0.7,0,1.2-0.4,1.2-1.1c0-2.4-4.3-3.1-4.3-6.6c0-2,1.2-3.1,3.3-3.1
		c1.7,0,2.7,1.2,2.9,3L185.9,3z"/>
	<path fill="#476B85" d="M196.8,3c0-1.7,1-3.1,3.2-3.1s3.2,1.4,3.2,3.1v6.3c0,1.7-1,3.1-3.2,3.1s-3.2-1.4-3.2-3.1V3z M198.9,9.2
		c0,0.9,0.3,1.4,1.1,1.4c0.8,0,1.1-0.4,1.1-1.4V3c0-0.9-0.3-1.4-1.1-1.4c-0.8,0-1.1,0.4-1.1,1.4V9.2z"/>
	<polygon fill="#476B85" points="206.9,12.2 206.9,0 212.8,0 212.8,1.8 209,1.8 209,5 211.9,5 211.9,6.8 209,6.8 209,12.2 	"/>
	<polygon fill="#476B85" points="222.9,1.8 220.8,1.8 220.8,0 227,0 227,1.8 225,1.8 225,12.2 222.9,12.2 	"/>
	<polygon fill="#476B85" points="229.9,12.2 229.9,0 232,0 232,5 234.3,5 234.3,0 236.4,0 236.4,12.2 234.3,12.2 234.3,6.8 232,6.8 
		232,12.2 	"/>
	<polygon fill="#476B85" points="240.1,12.2 240.1,0 245.7,0 245.7,1.8 242.2,1.8 242.2,5 244.9,5 244.9,6.8 242.2,6.8 242.2,10.4 
		246,10.4 246,12.2 	"/>
	<path fill="#476B85" d="M254.8,0h3.1c2.3,0,3.3,1.2,3.3,3.2c0,1.1-0.4,2.2-1.5,2.6c1.1,0.5,1.7,1.3,1.7,2.9c0,2-0.9,3.5-3.3,3.5
		h-3.3V0z M256.9,5h0.8c0.8,0,1.4-0.5,1.4-1.6c0-1.1-0.4-1.7-1.4-1.7h-0.8V5z M256.9,10.5h0.9c1.1,0,1.5-0.6,1.5-1.9
		c0-1.3-0.5-1.9-1.7-1.9h-0.7V10.5z"/>
	<path fill="#476B85" d="M265,0h2.1v9.2c0,0.9,0.4,1.3,1.1,1.3c0.8,0,1.1-0.4,1.1-1.3V0h2.1v9.2c0,2.1-1.2,3.3-3.2,3.3
		c-2,0-3.2-1.2-3.2-3.3V0z"/>
	<path fill="#476B85" d="M275.2,0h3.1c2.2,0,3.3,1.2,3.3,3.7v4.9c0,2.5-1.2,3.7-3.3,3.7h-3.1V0z M277.3,10.5h0.7
		c1.1,0,1.5-0.4,1.5-1.7V3.4c0-1.3-0.4-1.7-1.5-1.7h-0.7V10.5z"/>
	<path fill="#476B85" d="M285.3,0h3.1c2.2,0,3.3,1.2,3.3,3.7v4.9c0,2.5-1.2,3.7-3.3,3.7h-3.1V0z M287.4,10.5h0.7
		c1.1,0,1.5-0.4,1.5-1.7V3.4c0-1.3-0.4-1.7-1.5-1.7h-0.7V10.5z"/>
	<polygon fill="#476B85" points="295.5,12.2 295.5,0 297.6,0 297.6,5 299.9,5 299.9,0 302,0 302,12.2 299.9,12.2 299.9,6.8 
		297.6,6.8 297.6,12.2 	"/>
	<path fill="#476B85" d="M306.9,12.2h-2L307.1,0h2.6l2.3,12.2h-2l-0.4-2.7h-2.3L306.9,12.2z M307.6,7.7h1.7l-0.8-5.3h0L307.6,7.7z"
		/>
</g>
</svg>
